<svg version="1.1" viewBox="0.0 0.0 236.249343832021 222.9265091863517" fill="none" stroke="none" stroke-linecap="square" stroke-miterlimit="10" xmlns:xlink="http://www.w3.org/1999/xlink" xmlns="http://www.w3.org/2000/svg"><clipPath id="p.0"><path d="m0 0l236.24934 0l0 222.92651l-236.24934 0l0 -222.92651z" clip-rule="nonzero"/></clipPath><g clip-path="url(#p.0)"><path fill="#000000" fill-opacity="0.0" d="m0 0l236.24934 0l0 222.92651l-236.24934 0z" fill-rule="evenodd"/><path fill="#bbdefb" d="m0 112.362206l0 0c0 -62.05593 52.675285 -112.362206 117.65354 -112.362206l0 0c31.203667 0 61.129295 11.838127 83.19363 32.91013c22.064316 21.071999 34.459915 49.651768 34.459915 79.45207l0 0c0 62.05593 -52.675278 112.362206 -117.65354 112.362206l0 0c-64.97826 0 -117.65354 -50.306274 -117.65354 -112.362206z" fill-rule="evenodd"/><path stroke="#bbdefb" stroke-width="1.0" stroke-linejoin="round" stroke-linecap="butt" d="m0 112.362206l0 0c0 -62.05593 52.675285 -112.362206 117.65354 -112.362206l0 0c31.203667 0 61.129295 11.838127 83.19363 32.91013c22.064316 21.071999 34.459915 49.651768 34.459915 79.45207l0 0c0 62.05593 -52.675278 112.362206 -117.65354 112.362206l0 0c-64.97826 0 -117.65354 -50.306274 -117.65354 -112.362206z" fill-rule="evenodd"/><path fill="#f33278" d="m97.884796 70.42913l-81.224236 33.94194l0 17.139832l81.224236 33.857506l0 -22.374664l-50.15301 -20.094978l50.15301 -20.179405l0 -22.29023z" fill-rule="evenodd"/><path stroke="#f33278" stroke-width="1.0" stroke-linejoin="round" stroke-linecap="butt" d="m97.884796 70.42913l-81.224236 33.94194l0 17.139832l81.224236 33.857506l0 -22.374664l-50.15301 -20.094978l50.15301 -20.179405l0 -22.29023z" fill-rule="evenodd"/><path fill="#232c23" d="m150.73186 40.22047c-8.443268 0 -15.648193 1.3696861 -21.614761 4.1090584c-5.9665756 2.7206078 -10.291405 6.501316 -12.974487 11.342121c-2.664322 4.840809 -3.9964828 12.496037 -3.9964828 22.965687c0 7.2612076 0.93814087 13.227783 2.8144226 17.899727c1.8950424 4.6719437 4.2779236 8.330688 7.148636 10.97625c2.8707047 2.6455536 8.724709 6.8953323 17.561989 12.749336c8.837296 5.7977066 14.381699 9.934906 16.63324 12.411606c2.1952515 2.4766846 3.2928772 7.7396545 3.2928772 15.78891c0 3.6587372 -0.5816498 6.41687 -1.7449493 8.274399c-1.1445312 1.8575134 -2.8988495 2.7862701 -5.26297 2.7862701c-2.3641052 0 -4.0152435 -0.7317505 -4.9533844 -2.1952515c-0.91937256 -1.4634857 -1.3790588 -4.756363 -1.3790588 -9.878616l0 -16.63324l-33.013176 0l0 8.94986c0 10.244507 1.041336 18.15303 3.1240082 23.725586c2.082672 5.5725555 6.4825516 10.160065 13.199638 13.762527c6.735855 3.6024628 14.860153 5.4036865 24.372894 5.4036865c8.6684265 0 16.267365 -1.557312 22.79683 -4.671936c6.5294647 -3.1333923 10.929337 -7.007904 13.199646 -11.623566c2.2890625 -4.6156464 3.4335938 -11.792435 3.4335938 -21.530334c0 -13.396652 -2.054535 -23.106407 -6.1635895 -29.129265c-4.1090546 -6.0228653 -14.072113 -13.734383 -29.88916 -23.13456c-5.516281 -3.2647247 -8.865433 -6.0510025 -10.047501 -8.358833c-1.2383423 -2.3078232 -1.8575134 -5.741417 -1.8575134 -10.300781c0 -3.546173 0.5441284 -6.1917343 1.63237 -7.936676c1.1069946 -1.7449417 2.7299805 -2.6174126 4.8689423 -2.6174126c1.9700928 0 3.377304 0.6473198 4.221634 1.9419518c0.84432983 1.294632 1.2664948 4.3060684 1.2664948 9.034294l0 10.1319275l33.01317 0l0 -5.403694c0 -10.86367 -1.0600891 -18.556427 -3.1802979 -23.078266c-2.1014252 -4.5406 -6.407501 -8.302544 -12.918198 -11.285831c-6.491928 -2.9832878 -14.353546 -4.4749336 -23.584854 -4.4749336z" fill-rule="evenodd"/><path stroke="#232c23" stroke-width="1.0" stroke-linejoin="round" stroke-linecap="butt" d="m150.73186 40.22047c-8.443268 0 -15.648193 1.3696861 -21.614761 4.1090584c-5.9665756 2.7206078 -10.291405 6.501316 -12.974487 11.342121c-2.664322 4.840809 -3.9964828 12.496037 -3.9964828 22.965687c0 7.2612076 0.93814087 13.227783 2.8144226 17.899727c1.8950424 4.6719437 4.2779236 8.330688 7.148636 10.97625c2.8707047 2.6455536 8.724709 6.8953323 17.561989 12.749336c8.837296 5.7977066 14.381699 9.934906 16.63324 12.411606c2.1952515 2.4766846 3.2928772 7.7396545 3.2928772 15.78891c0 3.6587372 -0.5816498 6.41687 -1.7449493 8.274399c-1.1445312 1.8575134 -2.8988495 2.7862701 -5.26297 2.7862701c-2.3641052 0 -4.0152435 -0.7317505 -4.9533844 -2.1952515c-0.91937256 -1.4634857 -1.3790588 -4.756363 -1.3790588 -9.878616l0 -16.63324l-33.013176 0l0 8.94986c0 10.244507 1.041336 18.15303 3.1240082 23.725586c2.082672 5.5725555 6.4825516 10.160065 13.199638 13.762527c6.735855 3.6024628 14.860153 5.4036865 24.372894 5.4036865c8.6684265 0 16.267365 -1.557312 22.79683 -4.671936c6.5294647 -3.1333923 10.929337 -7.007904 13.199646 -11.623566c2.2890625 -4.6156464 3.4335938 -11.792435 3.4335938 -21.530334c0 -13.396652 -2.054535 -23.106407 -6.1635895 -29.129265c-4.1090546 -6.0228653 -14.072113 -13.734383 -29.88916 -23.13456c-5.516281 -3.2647247 -8.865433 -6.0510025 -10.047501 -8.358833c-1.2383423 -2.3078232 -1.8575134 -5.741417 -1.8575134 -10.300781c0 -3.546173 0.5441284 -6.1917343 1.63237 -7.936676c1.1069946 -1.7449417 2.7299805 -2.6174126 4.8689423 -2.6174126c1.9700928 0 3.377304 0.6473198 4.221634 1.9419518c0.84432983 1.294632 1.2664948 4.3060684 1.2664948 9.034294l0 10.1319275l33.01317 0l0 -5.403694c0 -10.86367 -1.0600891 -18.556427 -3.1802979 -23.078266c-2.1014252 -4.5406 -6.407501 -8.302544 -12.918198 -11.285831c-6.491928 -2.9832878 -14.353546 -4.4749336 -23.584854 -4.4749336z" fill-rule="evenodd"/></g></svg>